<?xml version="1.0" encoding="UTF-8" standalone="no"?>
<svg
   xmlns:dc="http://purl.org/dc/elements/1.1/"
   xmlns:cc="http://creativecommons.org/ns#"
   xmlns:rdf="http://www.w3.org/1999/02/22-rdf-syntax-ns#"
   xmlns:svg="http://www.w3.org/2000/svg"
   xmlns="http://www.w3.org/2000/svg"
   xmlns:sodipodi="http://sodipodi.sourceforge.net/DTD/sodipodi-0.dtd"
   xmlns:inkscape="http://www.inkscape.org/namespaces/inkscape"
   viewBox="0 0 32 32"
   width="32"
   version="1.1"
   height="32"
   id="svg4"
   sodipodi:docname="app-dark.svg"
   inkscape:version="0.92.2 2405546, 2018-03-11">
  <metadata
     id="metadata10">
    <rdf:RDF>
      <cc:Work
         rdf:about="">
        <dc:format>image/svg+xml</dc:format>
        <dc:type
           rdf:resource="http://purl.org/dc/dcmitype/StillImage" />
        <dc:title />
      </cc:Work>
    </rdf:RDF>
  </metadata>
  <defs
     id="defs8" />
  <sodipodi:namedview
     pagecolor="#ffffff"
     bordercolor="#666666"
     borderopacity="1"
     objecttolerance="10"
     gridtolerance="10"
     guidetolerance="10"
     inkscape:pageopacity="0"
     inkscape:pageshadow="2"
     inkscape:window-width="1920"
     inkscape:window-height="1003"
     id="namedview6"
     showgrid="true"
     inkscape:zoom="14.75"
     inkscape:cx="-1.3520688"
     inkscape:cy="10.671071"
     inkscape:window-x="0"
     inkscape:window-y="36"
     inkscape:window-maximized="1"
     inkscape:current-layer="layer2">
    <inkscape:grid
       type="xygrid"
       id="grid860" />
  </sodipodi:namedview>
  <g
     inkscape:groupmode="layer"
     id="layer1"
     inkscape:label="doc"
     style="display:inline"
     transform="translate(0,16)" />
  <g
     inkscape:groupmode="layer"
     id="layer3"
     inkscape:label="arrow"
     transform="translate(0,16)" />
  <g
     inkscape:groupmode="layer"
     id="layer2"
     inkscape:label="pdf"
     transform="translate(0,16)">
    <path
       inkscape:connector-curvature="0"
       d="M 4.5807256,0.99999987 2.0650794,-3.2857148 V -4 L 5,0.99999987 2.0650794,6 V 5.2857137 Z"
       id="path2-6"
       style="stroke-width:0.3;stroke-miterlimit:4;stroke-dasharray:none" />
    <path
       inkscape:connector-curvature="0"
       style="fill:#000000;fill-opacity:1;stroke-width:2.0091536"
       d="m 6.8947309,-14 c -0.5625608,0 -1.0045752,0.442013 -1.0045752,1.004576 v 26.119001 c 0,0.562564 0.4420144,1.004577 1.0045752,1.004577 H 28.995423 C 29.557987,14.128154 30,13.686141 30,13.123577 V -7.9725377 L 23.972539,-14 Z m 11.6530931,7.8357008 c 0,0 0.140636,1.9086962 -0.301372,4.6210538 1.436543,4.1247924 3.01373,4.6813282 3.716934,5.0228844 1.486775,-0.1205497 3.144326,-0.2009154 4.621053,0.602746 1.004577,0.574618 1.796184,3.013731 -0.602745,3.013731 C 24.896751,7.027807 22.893624,6.4009484 21.461098,5.6897086 19.319339,5.9308069 16.659221,6.3326369 14.429058,7.297031 11.917617,11.516253 10.792492,12.118999 9.908463,12.118999 7.4673407,11.476071 8.7833369,8.2413345 9.707548,7.6988621 c 1.105034,-0.9443024 2.400939,-1.4867738 2.812816,-1.6073234 0.180823,-0.3013731 2.780667,-5.4046236 3.41556,-7.5343263 -0.602746,-2.0573737 -0.743386,-4.231278 -0.401829,-5.525173 1.567138,-2.0453198 3.013729,-0.7032035 3.013729,0.8036614 z M 17.141417,0.0640775 C 16.598946,2.1877529 14.433079,6.2603071 14.529516,6.0915387 16.749633,5.1170991 18.74874,4.8257718 20.958808,4.4842156 19.901993,4.0120646 18.656318,3.9819272 17.141417,0.0640775 Z"
       id="path2-3" />
  </g>
</svg>
